<svg width="64" height="64" viewBox="0 0 64 64" fill="none" xmlns="http://www.w3.org/2000/svg">
  <!-- QR Code pattern - simplified and stylized -->
  <!-- Top row -->
  <rect x="10" y="10" width="6" height="6" fill="currentColor" rx="1"/>
  <rect x="20" y="10" width="3" height="3" fill="currentColor" rx="0.5"/>
  <rect x="27" y="10" width="3" height="3" fill="currentColor" rx="0.5"/>
  <rect x="34" y="10" width="6" height="6" fill="currentColor" rx="1"/>
  <rect x="44" y="10" width="6" height="6" fill="currentColor" rx="1"/>
  
  <!-- Second row -->
  <rect x="10" y="20" width="3" height="3" fill="currentColor" rx="0.5"/>
  <rect x="17" y="20" width="3" height="3" fill="currentColor" rx="0.5"/>
  <rect x="24" y="20" width="3" height="3" fill="currentColor" rx="0.5"/>
  <rect x="31" y="20" width="3" height="3" fill="currentColor" rx="0.5"/>
  <rect x="38" y="20" width="3" height="3" fill="currentColor" rx="0.5"/>
  <rect x="45" y="20" width="3" height="3" fill="currentColor" rx="0.5"/>
  
  <!-- Third row -->
  <rect x="10" y="27" width="6" height="6" fill="currentColor" rx="1"/>
  <rect x="20" y="27" width="3" height="3" fill="currentColor" rx="0.5"/>
  <rect x="27" y="27" width="3" height="3" fill="currentColor" rx="0.5"/>
  <rect x="34" y="27" width="6" height="6" fill="currentColor" rx="1"/>
  <rect x="44" y="27" width="3" height="3" fill="currentColor" rx="0.5"/>
  <rect x="51" y="27" width="3" height="3" fill="currentColor" rx="0.5"/>
  
  <!-- Fourth row -->
  <rect x="13" y="37" width="3" height="3" fill="currentColor" rx="0.5"/>
  <rect x="20" y="37" width="6" height="6" fill="currentColor" rx="1"/>
  <rect x="31" y="37" width="3" height="3" fill="currentColor" rx="0.5"/>
  <rect x="38" y="37" width="3" height="3" fill="currentColor" rx="0.5"/>
  <rect x="44" y="37" width="6" height="6" fill="currentColor" rx="1"/>
  
  <!-- Bottom row -->
  <rect x="10" y="44" width="6" height="6" fill="currentColor" rx="1"/>
  <rect x="20" y="44" width="3" height="3" fill="currentColor" rx="0.5"/>
  <rect x="27" y="44" width="3" height="3" fill="currentColor" rx="0.5"/>
  <rect x="34" y="44" width="3" height="3" fill="currentColor" rx="0.5"/>
  <rect x="41" y="44" width="3" height="3" fill="currentColor" rx="0.5"/>
  <rect x="48" y="44" width="3" height="3" fill="currentColor" rx="0.5"/>
  
  <!-- Home icon in center (subtle accent) -->
  <path d="M32 24L28 28V36H24V44H40V36H36V28L32 24Z" fill="currentColor" opacity="0.4"/>
</svg>

